<svg width="58" height="80" viewBox="0 0 58 80" fill="none" xmlns="http://www.w3.org/2000/svg">
<path d="M0.330952 65.1564V56.4711H3.81004C4.44929 56.4711 4.98247 56.5658 5.40958 56.7552C5.83669 56.9447 6.15772 57.2076 6.37269 57.544C6.58766 57.8777 6.69514 58.2622 6.69514 58.6976C6.69514 59.0368 6.62726 59.3351 6.49149 59.5924C6.35572 59.8468 6.16904 60.0561 5.93144 60.22C5.69667 60.3812 5.42796 60.4957 5.12531 60.5636V60.6484C5.45625 60.6625 5.76597 60.7558 6.05448 60.9283C6.34582 61.1007 6.582 61.3425 6.76303 61.6535C6.94405 61.9616 7.03457 62.3292 7.03457 62.7561C7.03457 63.2169 6.92001 63.6283 6.6909 63.9902C6.46462 64.3493 6.12944 64.6334 5.68536 64.8426C5.24128 65.0518 4.69396 65.1564 4.0434 65.1564H0.330952ZM2.16808 63.6552H3.66579C4.17775 63.6552 4.55112 63.5576 4.78589 63.3625C5.02065 63.1646 5.13804 62.9017 5.13804 62.5737C5.13804 62.3334 5.08005 62.1214 4.96408 61.9376C4.84811 61.7538 4.68264 61.6096 4.46768 61.505C4.25554 61.4004 4.00238 61.3481 3.70822 61.3481H2.16808V63.6552ZM2.16808 60.1055H3.53002C3.78176 60.1055 4.00521 60.0617 4.20038 59.9741C4.39838 59.8836 4.55395 59.7564 4.66709 59.5924C4.78306 59.4284 4.84104 59.2319 4.84104 59.0029C4.84104 58.6891 4.72932 58.436 4.50586 58.2438C4.28524 58.0515 3.97127 57.9554 3.56396 57.9554H2.16808V60.1055Z" fill="black"/>
<path d="M8.19603 65.1564V58.6424H10.0035V65.1564H8.19603ZM9.10399 57.8027C8.83528 57.8027 8.60476 57.7137 8.41242 57.5356C8.2229 57.3546 8.12815 57.1383 8.12815 56.8867C8.12815 56.6379 8.2229 56.4244 8.41242 56.2463C8.60476 56.0654 8.83528 55.9749 9.10399 55.9749C9.3727 55.9749 9.60181 56.0654 9.79132 56.2463C9.98366 56.4244 10.0798 56.6379 10.0798 56.8867C10.0798 57.1383 9.98366 57.3546 9.79132 57.5356C9.60181 57.7137 9.3727 57.8027 9.10399 57.8027Z" fill="black"/>
<path d="M11.4853 65.1564V56.4711H13.2927V59.7366H13.3478C13.427 59.5613 13.5416 59.3832 13.6915 59.2022C13.8443 59.0185 14.0422 58.8658 14.2855 58.7442C14.5316 58.6198 14.8371 58.5576 15.2019 58.5576C15.6771 58.5576 16.1156 58.682 16.5172 58.9308C16.9189 59.1768 17.2399 59.5486 17.4803 60.0462C17.7208 60.5409 17.841 61.1615 17.841 61.9079C17.841 62.6345 17.7236 63.248 17.4888 63.7485C17.2569 64.2461 16.9401 64.6235 16.5384 64.8808C16.1396 65.1352 15.6927 65.2625 15.1977 65.2625C14.847 65.2625 14.5486 65.2045 14.3025 65.0886C14.0592 64.9727 13.8598 64.8271 13.7042 64.6518C13.5487 64.4737 13.4299 64.2941 13.3478 64.1132H13.2672V65.1564H11.4853ZM13.2545 61.8994C13.2545 62.2868 13.3082 62.6246 13.4157 62.913C13.5232 63.2014 13.6788 63.4262 13.8824 63.5873C14.0861 63.7456 14.3336 63.8248 14.6249 63.8248C14.9191 63.8248 15.168 63.7442 15.3717 63.5831C15.5753 63.4191 15.7295 63.1929 15.8341 62.9045C15.9416 62.6133 15.9953 62.2783 15.9953 61.8994C15.9953 61.5234 15.943 61.1926 15.8384 60.9071C15.7337 60.6215 15.5796 60.3982 15.3759 60.237C15.1722 60.0759 14.9219 59.9953 14.6249 59.9953C14.3308 59.9953 14.0818 60.073 13.8782 60.2285C13.6774 60.384 13.5232 60.6045 13.4157 60.8901C13.3082 61.1757 13.2545 61.5121 13.2545 61.8994Z" fill="black"/>
<path d="M20.8544 56.4711V65.1564H19.047V56.4711H20.8544Z" fill="black"/>
<path d="M22.3023 65.1564V58.6424H24.1097V65.1564H22.3023ZM23.2102 57.8027C22.9415 57.8027 22.711 57.7137 22.5186 57.5356C22.3291 57.3546 22.2344 57.1383 22.2344 56.8867C22.2344 56.6379 22.3291 56.4244 22.5186 56.2463C22.711 56.0654 22.9415 55.9749 23.2102 55.9749C23.4789 55.9749 23.708 56.0654 23.8976 56.2463C24.0899 56.4244 24.1861 56.6379 24.1861 56.8867C24.1861 57.1383 24.0899 57.3546 23.8976 57.5356C23.708 57.7137 23.4789 57.8027 23.2102 57.8027Z" fill="black"/>
<path d="M28.502 65.2837C27.843 65.2837 27.2731 65.1437 26.7922 64.8638C26.3142 64.5811 25.9451 64.1881 25.6848 63.6849C25.4246 63.1788 25.2945 62.5921 25.2945 61.9249C25.2945 61.252 25.4246 60.6639 25.6848 60.1607C25.9451 59.6546 26.3142 59.2616 26.7922 58.9817C27.2731 58.699 27.843 58.5576 28.502 58.5576C29.1611 58.5576 29.7296 58.699 30.2077 58.9817C30.6885 59.2616 31.059 59.6546 31.3193 60.1607C31.5795 60.6639 31.7096 61.252 31.7096 61.9249C31.7096 62.5921 31.5795 63.1788 31.3193 63.6849C31.059 64.1881 30.6885 64.5811 30.2077 64.8638C29.7296 65.1437 29.1611 65.2837 28.502 65.2837ZM28.5105 63.8842C28.8104 63.8842 29.0607 63.7994 29.2615 63.6297C29.4623 63.4573 29.6137 63.2226 29.7155 62.9257C29.8201 62.6289 29.8725 62.291 29.8725 61.9122C29.8725 61.5333 29.8201 61.1954 29.7155 60.8986C29.6137 60.6017 29.4623 60.3671 29.2615 60.1946C29.0607 60.0221 28.8104 59.9359 28.5105 59.9359C28.2079 59.9359 27.9533 60.0221 27.7468 60.1946C27.5432 60.3671 27.389 60.6017 27.2844 60.8986C27.1825 61.1954 27.1316 61.5333 27.1316 61.9122C27.1316 62.291 27.1825 62.6289 27.2844 62.9257C27.389 63.2226 27.5432 63.4573 27.7468 63.6297C27.9533 63.7994 28.2079 63.8842 28.5105 63.8842Z" fill="black"/>
<path d="M36.3512 58.6424V59.9995H32.4266V58.6424H36.3512ZM33.3176 57.0818H35.125V63.1547C35.125 63.3215 35.1505 63.4516 35.2014 63.5449C35.2523 63.6354 35.323 63.699 35.4136 63.7357C35.5069 63.7725 35.6144 63.7909 35.736 63.7909C35.8209 63.7909 35.9057 63.7838 35.9906 63.7697C36.0754 63.7527 36.1405 63.74 36.1857 63.7315L36.47 65.0759C36.3795 65.1041 36.2522 65.1367 36.0882 65.1734C35.9241 65.213 35.7247 65.237 35.4899 65.2455C35.0543 65.2625 34.6725 65.2045 34.3444 65.0716C34.0191 64.9387 33.7659 64.7324 33.5849 64.4525C33.4039 64.1726 33.3148 63.8191 33.3176 63.3922V57.0818Z" fill="black"/>
<path d="M40.4285 65.2837C39.7582 65.2837 39.1812 65.148 38.6975 64.8765C38.2166 64.6023 37.8461 64.215 37.5859 63.7145C37.3256 63.2113 37.1955 62.6161 37.1955 61.9291C37.1955 61.2591 37.3256 60.671 37.5859 60.1649C37.8461 59.6588 38.2124 59.2644 38.6848 58.9817C39.1599 58.699 39.7172 58.5576 40.3564 58.5576C40.7864 58.5576 41.1866 58.6269 41.5571 58.7654C41.9305 58.9011 42.2558 59.1061 42.533 59.3803C42.813 59.6546 43.0308 59.9995 43.1864 60.4151C43.3419 60.8279 43.4197 61.3114 43.4197 61.8655V62.3617H37.9168V61.2421H41.7184C41.7184 60.982 41.6618 60.7516 41.5486 60.5508C41.4355 60.3501 41.2785 60.1932 41.0777 60.0801C40.8797 59.9642 40.6492 59.9062 40.3861 59.9062C40.1117 59.9062 39.8685 59.9698 39.6564 60.0971C39.447 60.2215 39.283 60.3897 39.1642 60.6017C39.0454 60.8109 38.9846 61.0442 38.9818 61.3015V62.3659C38.9818 62.6882 39.0412 62.9667 39.16 63.2014C39.2816 63.4361 39.4527 63.617 39.6733 63.7442C39.894 63.8715 40.1556 63.9351 40.4582 63.9351C40.6591 63.9351 40.8429 63.9068 41.0098 63.8502C41.1767 63.7937 41.3195 63.7089 41.4383 63.5958C41.5571 63.4827 41.6476 63.3442 41.7099 63.1802L43.3815 63.2904C43.2967 63.6919 43.1227 64.0425 42.8597 64.3422C42.5994 64.6391 42.2628 64.8709 41.8499 65.0377C41.4397 65.2017 40.966 65.2837 40.4285 65.2837Z" fill="black"/>
<path d="M47.5437 65.2837C46.8762 65.2837 46.302 65.1423 45.8211 64.8596C45.3431 64.574 44.9754 64.1782 44.718 63.6721C44.4634 63.166 44.3362 62.5836 44.3362 61.9249C44.3362 61.2576 44.4649 60.6724 44.7223 60.1692C44.9825 59.6631 45.3516 59.2687 45.8296 58.9859C46.3076 58.7004 46.8762 58.5576 47.5352 58.5576C48.1038 58.5576 48.6016 58.6608 49.0287 58.8672C49.4558 59.0736 49.7938 59.3634 50.0427 59.7366C50.2916 60.1098 50.4288 60.548 50.4543 61.0513H48.7487C48.7006 60.7261 48.5733 60.4646 48.3668 60.2667C48.1632 60.066 47.8959 59.9656 47.5649 59.9656C47.2849 59.9656 47.0402 60.0419 46.8309 60.1946C46.6244 60.3444 46.4632 60.5636 46.3472 60.8519C46.2313 61.1403 46.1733 61.4895 46.1733 61.8994C46.1733 62.315 46.2299 62.6684 46.343 62.9597C46.459 63.2509 46.6216 63.4728 46.8309 63.6255C47.0402 63.7782 47.2849 63.8545 47.5649 63.8545C47.7714 63.8545 47.9567 63.8121 48.1207 63.7273C48.2876 63.6424 48.4248 63.5195 48.5323 63.3583C48.6426 63.1943 48.7147 62.9978 48.7487 62.7688H50.4543C50.426 63.2664 50.2902 63.7046 50.047 64.0835C49.8065 64.4595 49.4742 64.7536 49.0499 64.9656C48.6256 65.1776 48.1236 65.2837 47.5437 65.2837Z" fill="black"/>
<path d="M53.4698 65.2794C53.054 65.2794 52.6835 65.2073 52.3582 65.0631C52.0329 64.9161 51.7755 64.6998 51.586 64.4143C51.3993 64.1259 51.306 63.7668 51.306 63.3371C51.306 62.9752 51.3725 62.6713 51.5054 62.4253C51.6384 62.1793 51.8194 61.9814 52.0485 61.8316C52.2776 61.6817 52.5378 61.5686 52.8292 61.4923C53.1233 61.416 53.4316 61.3623 53.7541 61.3312C54.1331 61.2916 54.4386 61.2548 54.6705 61.2209C54.9025 61.1841 55.0708 61.1304 55.1754 61.0597C55.2801 60.9891 55.3324 60.8844 55.3324 60.7459V60.7205C55.3324 60.4519 55.2476 60.2441 55.0779 60.0971C54.911 59.95 54.6734 59.8765 54.3651 59.8765C54.0398 59.8765 53.781 59.9486 53.5886 60.0928C53.3963 60.2342 53.269 60.4123 53.2068 60.6272L51.5351 60.4915C51.62 60.0956 51.7869 59.7535 52.0358 59.4652C52.2847 59.174 52.6057 58.9506 52.9989 58.7951C53.3949 58.6368 53.8531 58.5576 54.3736 58.5576C54.7356 58.5576 55.0821 58.6 55.413 58.6848C55.7468 58.7697 56.0424 58.9011 56.2998 59.0792C56.56 59.2574 56.7651 59.4864 56.915 59.7663C57.0649 60.0433 57.1399 60.3755 57.1399 60.7629V65.1564H55.4258V64.2531H55.3749C55.2702 64.4567 55.1302 64.6362 54.9548 64.7917C54.7794 64.9444 54.5687 65.0646 54.3226 65.1522C54.0766 65.237 53.7923 65.2794 53.4698 65.2794ZM53.9875 64.0326C54.2533 64.0326 54.4881 63.9803 54.6918 63.8757C54.8954 63.7683 55.0552 63.6241 55.1712 63.4431C55.2872 63.2622 55.3451 63.0572 55.3451 62.8282V62.1369C55.2886 62.1737 55.2108 62.2076 55.1118 62.2387C55.0156 62.267 54.9067 62.2938 54.7851 62.3193C54.6635 62.3419 54.5418 62.3631 54.4202 62.3829C54.2986 62.3999 54.1883 62.4154 54.0893 62.4295C53.8771 62.4606 53.6919 62.5101 53.5335 62.578C53.3751 62.6458 53.252 62.7377 53.1644 62.8536C53.0767 62.9667 53.0328 63.1081 53.0328 63.2777C53.0328 63.5237 53.1219 63.7117 53.3001 63.8418C53.4811 63.969 53.7103 64.0326 53.9875 64.0326Z" fill="black"/>
<path d="M0 70.3861V68.8721H7.13638V70.3861H4.47615V77.5574H2.66023V70.3861H0Z" fill="#2F80ED"/>
<path d="M7.60097 77.5574V71.0434H9.35324V72.18H9.42112C9.53992 71.7757 9.73933 71.4703 10.0194 71.2639C10.2994 71.0547 10.6218 70.9501 10.9867 70.9501C11.0772 70.9501 11.1748 70.9558 11.2795 70.9671C11.3841 70.9784 11.4761 70.9939 11.5552 71.0137V72.6168C11.4704 72.5913 11.353 72.5687 11.2031 72.5489C11.0532 72.5291 10.916 72.5192 10.7915 72.5192C10.5257 72.5192 10.2881 72.5772 10.0788 72.6931C9.87227 72.8062 9.70822 72.9645 9.58659 73.1681C9.46779 73.3717 9.4084 73.6063 9.4084 73.8721V77.5574H7.60097Z" fill="#2F80ED"/>
<path d="M12.4897 77.5574V71.0434H14.2972V77.5574H12.4897ZM13.3977 70.2037C13.129 70.2037 12.8984 70.1147 12.7061 69.9365C12.5166 69.7556 12.4218 69.5393 12.4218 69.2877C12.4218 69.0389 12.5166 68.8254 12.7061 68.6473C12.8984 68.4664 13.129 68.3759 13.3977 68.3759C13.6664 68.3759 13.8955 68.4664 14.085 68.6473C14.2774 68.8254 14.3735 69.0389 14.3735 69.2877C14.3735 69.5393 14.2774 69.7556 14.085 69.9365C13.8955 70.1147 13.6664 70.2037 13.3977 70.2037Z" fill="#2F80ED"/>
<path d="M15.745 80.0002V71.0434H17.527V72.1376H17.6076C17.6868 71.9623 17.8013 71.7842 17.9513 71.6032C18.104 71.4194 18.302 71.2668 18.5453 71.1452C18.7913 71.0208 19.0968 70.9586 19.4617 70.9586C19.9369 70.9586 20.3753 71.083 20.777 71.3318C21.1786 71.5778 21.4997 71.9496 21.7401 72.4472C21.9805 72.9419 22.1007 73.5625 22.1007 74.3089C22.1007 75.0355 21.9833 75.649 21.7486 76.1495C21.5166 76.647 21.1998 77.0245 20.7982 77.2818C20.3994 77.5362 19.9524 77.6634 19.4575 77.6634C19.1067 77.6634 18.8083 77.6055 18.5622 77.4896C18.319 77.3737 18.1196 77.2281 17.964 77.0528C17.8084 76.8746 17.6896 76.6951 17.6076 76.5142H17.5524V80.0002H15.745ZM17.5143 74.3004C17.5143 74.6878 17.568 75.0256 17.6755 75.314C17.783 75.6024 17.9385 75.8271 18.1422 75.9883C18.3458 76.1466 18.5933 76.2258 18.8847 76.2258C19.1788 76.2258 19.4278 76.1452 19.6314 75.9841C19.8351 75.8201 19.9892 75.5939 20.0939 75.3055C20.2014 75.0143 20.2551 74.6793 20.2551 74.3004C20.2551 73.9244 20.2028 73.5936 20.0981 73.3081C19.9935 73.0225 19.8393 72.7991 19.6357 72.638C19.432 72.4768 19.1817 72.3963 18.8847 72.3963C18.5905 72.3963 18.3416 72.474 18.1379 72.6295C17.9371 72.785 17.783 73.0055 17.6755 73.2911C17.568 73.5766 17.5143 73.9131 17.5143 74.3004Z" fill="#2F80ED"/>
<path d="M25.1131 68.8721V77.5574H23.3057V68.8721H25.1131Z" fill="#2F80ED"/>
<path d="M29.5309 77.6847C28.8605 77.6847 28.2835 77.5489 27.7998 77.2775C27.319 77.0033 26.9485 76.6159 26.6882 76.1155C26.428 75.6123 26.2979 75.0171 26.2979 74.3301C26.2979 73.66 26.428 73.072 26.6882 72.5659C26.9485 72.0598 27.3148 71.6654 27.7871 71.3827C28.2623 71.1 28.8195 70.9586 29.4588 70.9586C29.8887 70.9586 30.289 71.0279 30.6595 71.1664C31.0329 71.3021 31.3581 71.5071 31.6353 71.7813C31.9154 72.0556 32.1332 72.4005 32.2887 72.8161C32.4443 73.2289 32.5221 73.7123 32.5221 74.2665V74.7627H27.0192V73.6431H30.8207C30.8207 73.383 30.7641 73.1526 30.651 72.9518C30.5379 72.7511 30.3809 72.5942 30.1801 72.4811C29.9821 72.3652 29.7515 72.3072 29.4885 72.3072C29.2141 72.3072 28.9709 72.3708 28.7587 72.498C28.5494 72.6224 28.3854 72.7907 28.2666 73.0027C28.1478 73.2119 28.0869 73.4452 28.0841 73.7025V74.7669C28.0841 75.0892 28.1435 75.3677 28.2623 75.6024C28.3839 75.837 28.5551 76.018 28.7757 76.1452C28.9963 76.2724 29.258 76.336 29.5606 76.336C29.7614 76.336 29.9453 76.3078 30.1122 76.2512C30.2791 76.1947 30.4219 76.1099 30.5407 75.9968C30.6595 75.8837 30.75 75.7452 30.8122 75.5812L32.4839 75.6914C32.399 76.0929 32.2251 76.4435 31.962 76.7432C31.7018 77.04 31.3652 77.2719 30.9522 77.4387C30.5421 77.6027 30.0683 77.6847 29.5309 77.6847Z" fill="#2F80ED"/>
<path fill-rule="evenodd" clip-rule="evenodd" d="M0 4.55411L18.97 11.0283V39.5685L0 33.0944V4.55411ZM2.0168 7.37258V31.6525L16.9532 36.7501V12.4701L2.0168 7.37258Z" fill="black"/>
<path fill-rule="evenodd" clip-rule="evenodd" d="M9.11315 0L28.0832 6.47417V35.0144L9.11315 28.5403V0ZM11.13 2.81847V27.0984L26.0664 32.196V7.91603L11.13 2.81847Z" fill="black"/>
</svg>
